# xmcd
#
# Track frame offsets: 
#        182
#        15345
#        34007
#        49612
#        67277
#        83037
#        99407
#        119220
#        137560
#        153162
#
# Disc length: 2243 seconds
#
# Revision: 2
# Processed by: cddbd v1.5.2PL0 Copyright (c) Steve Scherf et al.
# Submitted via: ExactAudioCopyFreeDBPlugin 1.0
#
DISCID=7c08c10a
DTITLE=Various Artist - Favorite country duets
DYEAR=1991
DGENRE=Country
TTITLE0=Southern Pacific and Carlene Carter - Time's up
TTITLE1=Michael Martin Murphey and Holly Dunn - A face in the crowd
TTITLE2=Gary Morris and Crystal Gayle - Makin' up for lost time
TTITLE3=Dwight Yoakam and K. D. Lang - Sin city
TTITLE4=Kenny Rogers and Holly Dunn - Maybe
TTITLE5=Gary Morris and Crystal Gayle - Another world
TTITLE6=B.J. Thomas and Dusty Springfield - As long as we got each other
TTITLE7=The Forester Sisters and The Bellamy Brothers - Drive South
TTITLE8=Michael Martin Murphey and Ryan Murphey - Talkin' to the wrong m
TTITLE8=an
TTITLE9=Pinkard and Bowden - Mama she's lazy
EXTD=
EXTT0=
EXTT1=
EXTT2=
EXTT3=
EXTT4=
EXTT5=
EXTT6=
EXTT7=
EXTT8=
EXTT9=
PLAYORDER=
